<svg xmlns="http://www.w3.org/2000/svg" xmlns:xlink="http://www.w3.org/1999/xlink" width="1584" zoomAndPan="magnify" viewBox="0 0 1188 296.999993" height="396" preserveAspectRatio="xMidYMid meet" version="1.0"><defs><clipPath id="6f99caf402"><path d="M 114 144.140625 L 1074 144.140625 L 1074 153 L 114 153 Z M 114 144.140625 " clip-rule="nonzero"/></clipPath><clipPath id="edb99cecde"><path d="M 52 136 L 87 136 L 87 153 L 52 153 Z M 52 136 " clip-rule="nonzero"/></clipPath><clipPath id="c37d1975f6"><path d="M 44.742188 108.519531 L 164.0625 78.667969 L 176.988281 130.328125 L 57.664062 160.179688 Z M 44.742188 108.519531 " clip-rule="nonzero"/></clipPath><clipPath id="b9d6b0123b"><path d="M 44.742188 108.519531 L 164.0625 78.667969 L 176.988281 130.328125 L 57.664062 160.179688 Z M 44.742188 108.519531 " clip-rule="nonzero"/></clipPath><clipPath id="1177b3119c"><path d="M 76 117 L 97 117 L 97 137 L 76 137 Z M 76 117 " clip-rule="nonzero"/></clipPath><clipPath id="5586f84a43"><path d="M 44.742188 108.519531 L 164.0625 78.667969 L 176.988281 130.328125 L 57.664062 160.179688 Z M 44.742188 108.519531 " clip-rule="nonzero"/></clipPath><clipPath id="ec663b099f"><path d="M 44.742188 108.519531 L 164.0625 78.667969 L 176.988281 130.328125 L 57.664062 160.179688 Z M 44.742188 108.519531 " clip-rule="nonzero"/></clipPath><clipPath id="b151493927"><path d="M 99 94 L 112 94 L 112 132 L 99 132 Z M 99 94 " clip-rule="nonzero"/></clipPath><clipPath id="a7e804173b"><path d="M 44.742188 108.519531 L 164.0625 78.667969 L 176.988281 130.328125 L 57.664062 160.179688 Z M 44.742188 108.519531 " clip-rule="nonzero"/></clipPath><clipPath id="a22dea3636"><path d="M 44.742188 108.519531 L 164.0625 78.667969 L 176.988281 130.328125 L 57.664062 160.179688 Z M 44.742188 108.519531 " clip-rule="nonzero"/></clipPath><clipPath id="37e287662c"><path d="M 100 98 L 108 98 L 108 115 L 100 115 Z M 100 98 " clip-rule="nonzero"/></clipPath><clipPath id="39c472a88a"><path d="M 44.742188 108.519531 L 164.0625 78.667969 L 176.988281 130.328125 L 57.664062 160.179688 Z M 44.742188 108.519531 " clip-rule="nonzero"/></clipPath><clipPath id="b32e8f172d"><path d="M 44.742188 108.519531 L 164.0625 78.667969 L 176.988281 130.328125 L 57.664062 160.179688 Z M 44.742188 108.519531 " clip-rule="nonzero"/></clipPath><clipPath id="a21a5cc418"><path d="M 125 104 L 134 104 L 134 132 L 125 132 Z M 125 104 " clip-rule="nonzero"/></clipPath><clipPath id="414426b757"><path d="M 44.742188 108.519531 L 164.0625 78.667969 L 176.988281 130.328125 L 57.664062 160.179688 Z M 44.742188 108.519531 " clip-rule="nonzero"/></clipPath><clipPath id="387e8039b1"><path d="M 44.742188 108.519531 L 164.0625 78.667969 L 176.988281 130.328125 L 57.664062 160.179688 Z M 44.742188 108.519531 " clip-rule="nonzero"/></clipPath><clipPath id="93d9ab23b5"><path d="M 140 107 L 172 107 L 172 137 L 140 137 Z M 140 107 " clip-rule="nonzero"/></clipPath><clipPath id="0f8b7979e1"><path d="M 44.742188 108.519531 L 164.0625 78.667969 L 176.988281 130.328125 L 57.664062 160.179688 Z M 44.742188 108.519531 " clip-rule="nonzero"/></clipPath><clipPath id="cbe6b29654"><path d="M 44.742188 108.519531 L 164.0625 78.667969 L 176.988281 130.328125 L 57.664062 160.179688 Z M 44.742188 108.519531 " clip-rule="nonzero"/></clipPath><clipPath id="3f1f799a14"><path d="M 1023 107 L 1048 107 L 1048 137 L 1023 137 Z M 1023 107 " clip-rule="nonzero"/></clipPath><clipPath id="1e837f39ff"><path d="M 1030.742188 78.589844 L 1149.847656 109.289062 L 1136.558594 160.855469 L 1017.449219 130.152344 Z M 1030.742188 78.589844 " clip-rule="nonzero"/></clipPath><clipPath id="8c84052040"><path d="M 1030.742188 78.589844 L 1149.847656 109.289062 L 1136.558594 160.855469 L 1017.449219 130.152344 Z M 1030.742188 78.589844 " clip-rule="nonzero"/></clipPath><clipPath id="e3d73d8058"><path d="M 1052 101 L 1064 101 L 1064 128 L 1052 128 Z M 1052 101 " clip-rule="nonzero"/></clipPath><clipPath id="7910fb65f2"><path d="M 1030.742188 78.589844 L 1149.847656 109.289062 L 1136.558594 160.855469 L 1017.449219 130.152344 Z M 1030.742188 78.589844 " clip-rule="nonzero"/></clipPath><clipPath id="175b66a261"><path d="M 1030.742188 78.589844 L 1149.847656 109.289062 L 1136.558594 160.855469 L 1017.449219 130.152344 Z M 1030.742188 78.589844 " clip-rule="nonzero"/></clipPath><clipPath id="3eaea307d2"><path d="M 1076 93 L 1089 93 L 1089 130 L 1076 130 Z M 1076 93 " clip-rule="nonzero"/></clipPath><clipPath id="b0c4ed1c2d"><path d="M 1030.742188 78.589844 L 1149.847656 109.289062 L 1136.558594 160.855469 L 1017.449219 130.152344 Z M 1030.742188 78.589844 " clip-rule="nonzero"/></clipPath><clipPath id="32e2805e9b"><path d="M 1030.742188 78.589844 L 1149.847656 109.289062 L 1136.558594 160.855469 L 1017.449219 130.152344 Z M 1030.742188 78.589844 " clip-rule="nonzero"/></clipPath><clipPath id="6b8c6b7b60"><path d="M 1081 96 L 1087 96 L 1087 114 L 1081 114 Z M 1081 96 " clip-rule="nonzero"/></clipPath><clipPath id="2f9c0898a3"><path d="M 1030.742188 78.589844 L 1149.847656 109.289062 L 1136.558594 160.855469 L 1017.449219 130.152344 Z M 1030.742188 78.589844 " clip-rule="nonzero"/></clipPath><clipPath id="9c4f2179c6"><path d="M 1030.742188 78.589844 L 1149.847656 109.289062 L 1136.558594 160.855469 L 1017.449219 130.152344 Z M 1030.742188 78.589844 " clip-rule="nonzero"/></clipPath><clipPath id="667dc998f5"><path d="M 1091 116 L 1111 116 L 1111 138 L 1091 138 Z M 1091 116 " clip-rule="nonzero"/></clipPath><clipPath id="76d1edcefd"><path d="M 1030.742188 78.589844 L 1149.847656 109.289062 L 1136.558594 160.855469 L 1017.449219 130.152344 Z M 1030.742188 78.589844 " clip-rule="nonzero"/></clipPath><clipPath id="db109461cd"><path d="M 1030.742188 78.589844 L 1149.847656 109.289062 L 1136.558594 160.855469 L 1017.449219 130.152344 Z M 1030.742188 78.589844 " clip-rule="nonzero"/></clipPath><clipPath id="5126167678"><path d="M 1101 137 L 1143 137 L 1143 150 L 1101 150 Z M 1101 137 " clip-rule="nonzero"/></clipPath><clipPath id="ba40249657"><path d="M 1030.742188 78.589844 L 1149.847656 109.289062 L 1136.558594 160.855469 L 1017.449219 130.152344 Z M 1030.742188 78.589844 " clip-rule="nonzero"/></clipPath><clipPath id="7431f7ae39"><path d="M 1030.742188 78.589844 L 1149.847656 109.289062 L 1136.558594 160.855469 L 1017.449219 130.152344 Z M 1030.742188 78.589844 " clip-rule="nonzero"/></clipPath></defs><g clip-path="url(#6f99caf402)"><path fill="#587fee" d="M 593.996094 152.859375 L 114.464844 148.5 L 593.996094 144.140625 L 1073.527344 148.5 Z M 593.996094 152.859375 " fill-opacity="1" fill-rule="nonzero"/></g><g clip-path="url(#edb99cecde)"><g clip-path="url(#c37d1975f6)"><g clip-path="url(#b9d6b0123b)"><path fill="#030f52" d="M 54.132812 136.878906 L 54.082031 136.890625 C 52.726562 137.246094 52.292969 138.117188 52.789062 139.507812 C 53.246094 140.390625 54.664062 141.496094 57.050781 142.820312 C 59.574219 144.109375 64.890625 146.171875 72.992188 149.011719 C 77.40625 150.519531 80.617188 151.558594 82.628906 152.125 C 84.457031 152.628906 85.441406 152.792969 85.574219 152.617188 C 85.933594 152.59375 86.273438 152.226562 86.59375 151.515625 C 86.710938 151.066406 86.609375 150.65625 86.289062 150.289062 C 85.894531 149.878906 85.261719 149.390625 84.382812 148.820312 C 81.769531 147.253906 79.914062 146.21875 78.808594 145.710938 C 65.910156 139.210938 57.6875 136.265625 54.132812 136.878906 " fill-opacity="1" fill-rule="nonzero"/></g></g></g><g clip-path="url(#1177b3119c)"><g clip-path="url(#5586f84a43)"><g clip-path="url(#ec663b099f)"><path fill="#030f52" d="M 77.300781 117.144531 L 77.273438 117.152344 C 76.730469 117.355469 76.367188 117.675781 76.183594 118.113281 C 76.058594 118.402344 76.015625 118.742188 76.046875 119.125 C 76.097656 119.507812 76.164062 119.796875 76.25 119.996094 C 76.851562 121.492188 78.308594 123.496094 80.621094 126.003906 C 82.472656 128.109375 85.207031 130.390625 88.828125 132.847656 C 89.957031 133.667969 91.507812 134.601562 93.484375 135.652344 C 94.230469 136.085938 94.832031 136.25 95.289062 136.144531 C 95.71875 136.015625 96 135.6875 96.132812 135.164062 C 96.179688 134.929688 96.1875 134.765625 96.160156 134.671875 L 96.011719 133.988281 C 95.964844 133.835938 95.917969 133.730469 95.875 133.671875 C 93.285156 129.917969 90.863281 126.882812 88.609375 124.566406 C 86.625 122.542969 84.222656 120.574219 81.40625 118.652344 C 79.636719 117.550781 78.269531 117.046875 77.300781 117.144531 " fill-opacity="1" fill-rule="nonzero"/></g></g></g><g clip-path="url(#b151493927)"><g clip-path="url(#a7e804173b)"><g clip-path="url(#a22dea3636)"><path fill="#030f52" d="M 102.421875 99.175781 L 102.472656 99.328125 C 102.617188 99.738281 102.765625 100.199219 102.917969 100.703125 L 103.015625 101.03125 L 103.117188 101.414062 L 103.230469 101.867188 L 103.355469 102.394531 L 103.492188 102.992188 L 103.640625 103.667969 L 103.796875 104.414062 L 103.96875 105.234375 L 104.148438 106.128906 L 104.332031 107.082031 C 104.207031 106.632812 104.078125 106.160156 103.941406 105.667969 C 103.84375 105.308594 103.671875 104.660156 103.425781 103.71875 C 103.03125 102.035156 102.71875 100.652344 102.480469 99.574219 L 102.394531 99.179688 L 102.421875 99.175781 M 109.648438 121.839844 L 109.625 121.929688 L 109.597656 122.019531 L 109.5625 122.101562 L 109.519531 122.179688 L 109.46875 122.25 L 109.410156 122.320312 L 109.347656 122.382812 L 109.273438 122.445312 L 109.195312 122.5 C 109.300781 122.414062 109.386719 122.316406 109.460938 122.207031 C 109.53125 122.09375 109.585938 121.972656 109.621094 121.84375 L 109.648438 121.839844 M 101.203125 94.390625 L 101.117188 94.414062 C 100.492188 94.609375 100.0625 95.019531 99.832031 95.648438 L 99.65625 96.222656 C 99.554688 96.648438 99.496094 97.152344 99.476562 97.734375 C 99.433594 98.902344 99.546875 100.382812 99.8125 102.183594 C 100.085938 103.910156 100.394531 105.433594 100.730469 106.75 C 101.554688 109.996094 102.449219 113.007812 103.414062 115.78125 C 103.585938 116.292969 104.179688 118.019531 105.203125 120.964844 L 108.699219 130.234375 C 108.992188 130.878906 109.503906 131.136719 110.230469 131.007812 C 110.625 130.894531 110.910156 130.632812 111.078125 130.222656 C 111.144531 129.980469 111.171875 129.828125 111.15625 129.773438 C 111.121094 129.460938 111.097656 129.359375 111.085938 129.46875 C 111.1875 129.238281 111.207031 128.910156 111.148438 128.484375 L 109.667969 121.433594 L 106.636719 105.640625 C 106.253906 103.722656 105.933594 102.242188 105.679688 101.207031 C 105.046875 98.765625 104.363281 96.945312 103.628906 95.746094 C 102.871094 94.644531 102.0625 94.191406 101.203125 94.390625 " fill-opacity="1" fill-rule="nonzero"/></g></g></g><g clip-path="url(#37e287662c)"><g clip-path="url(#39c472a88a)"><g clip-path="url(#b32e8f172d)"><path fill="#030f52" d="M 101.8125 98.222656 C 101.15625 98.386719 100.742188 99.042969 100.878906 99.710938 C 100.921875 99.914062 100.980469 100.148438 101.050781 100.421875 L 101.058594 100.441406 L 101.527344 102.0625 C 101.660156 102.546875 102.027344 103.851562 102.628906 105.980469 L 102.632812 105.984375 C 102.742188 106.371094 103.042969 107.488281 103.539062 109.335938 L 103.539062 109.339844 C 103.621094 109.636719 103.730469 110.039062 103.871094 110.546875 C 103.96875 110.914062 104.277344 111.960938 104.789062 113.6875 C 104.980469 114.339844 105.65625 114.722656 106.308594 114.558594 C 106.328125 114.550781 106.347656 114.546875 106.363281 114.542969 C 107.035156 114.34375 107.417969 113.636719 107.21875 112.964844 C 106.707031 111.242188 106.410156 110.214844 106.320312 109.878906 L 106.316406 109.867188 C 106.179688 109.371094 106.070312 108.976562 105.988281 108.675781 L 105.988281 108.679688 C 105.492188 106.824219 105.1875 105.691406 105.070312 105.285156 L 105.070312 105.289062 C 104.46875 103.167969 104.101562 101.863281 103.96875 101.378906 L 103.964844 101.359375 L 103.5 99.757812 C 103.441406 99.535156 103.394531 99.347656 103.363281 99.195312 C 103.222656 98.511719 102.550781 98.070312 101.863281 98.210938 C 101.847656 98.214844 101.832031 98.21875 101.8125 98.222656 Z M 101.8125 98.222656 " fill-opacity="1" fill-rule="nonzero"/></g></g></g><g clip-path="url(#a21a5cc418)"><g clip-path="url(#414426b757)"><g clip-path="url(#387e8039b1)"><path fill="#030f52" d="M 131.644531 104.449219 L 131.546875 104.476562 C 131.074219 104.648438 130.679688 104.972656 130.355469 105.453125 C 129.894531 106.101562 129.398438 107.136719 128.867188 108.554688 C 128.128906 110.765625 127.625 112.472656 127.351562 113.675781 C 126.988281 115.140625 126.667969 116.621094 126.394531 118.117188 L 126.019531 120.371094 C 125.789062 121.882812 125.609375 123.410156 125.46875 124.949219 L 125.296875 127.277344 L 125.179688 129.988281 C 125.183594 130.414062 125.332031 130.769531 125.628906 131.046875 C 126.070312 131.363281 126.472656 131.476562 126.84375 131.386719 C 127.230469 131.277344 127.539062 130.96875 127.777344 130.464844 L 128.875 127.960938 C 129.300781 126.898438 129.707031 125.800781 130.097656 124.667969 C 131.109375 121.882812 132.207031 117.757812 133.398438 112.292969 C 133.722656 110.546875 133.898438 109.101562 133.929688 107.957031 C 133.945312 107.386719 133.925781 106.890625 133.867188 106.472656 L 133.75 105.898438 C 133.367188 104.769531 132.664062 104.289062 131.644531 104.449219 " fill-opacity="1" fill-rule="nonzero"/></g></g></g><g clip-path="url(#93d9ab23b5)"><g clip-path="url(#0f8b7979e1)"><g clip-path="url(#cbe6b29654)"><path fill="#030f52" d="M 169.546875 107.378906 L 169.117188 107.523438 C 163.890625 110.335938 156.792969 116.5 147.816406 126.015625 L 145.410156 128.691406 L 140.320312 134.695312 C 139.945312 135.496094 139.941406 136.03125 140.308594 136.296875 C 140.773438 136.769531 141.289062 136.914062 141.855469 136.726562 C 142.183594 136.605469 142.574219 136.371094 143.019531 136.015625 C 144.1875 135.042969 145.035156 134.25 145.5625 133.636719 C 150.808594 129.851562 154.863281 126.660156 157.722656 124.070312 C 161.769531 120.550781 165.085938 117.414062 167.671875 114.660156 C 170.105469 112.011719 171.398438 110.257812 171.546875 109.394531 C 171.707031 108.699219 171.574219 108.140625 171.144531 107.730469 C 170.785156 107.347656 170.25 107.230469 169.546875 107.378906 " fill-opacity="1" fill-rule="nonzero"/></g></g></g><g clip-path="url(#3f1f799a14)"><g clip-path="url(#1e837f39ff)"><g clip-path="url(#8c84052040)"><path fill="#030f52" d="M 1025.464844 107.992188 L 1025.414062 107.976562 C 1024.054688 107.644531 1023.257812 108.203125 1023.027344 109.660156 C 1023.007812 110.65625 1023.730469 112.304688 1025.191406 114.605469 C 1026.796875 116.945312 1030.484375 121.292969 1036.25 127.652344 C 1039.410156 131.085938 1041.734375 133.53125 1043.230469 134.988281 C 1044.597656 136.300781 1045.382812 136.914062 1045.585938 136.824219 C 1045.914062 136.976562 1046.386719 136.816406 1047.007812 136.34375 C 1047.328125 136.003906 1047.429688 135.597656 1047.324219 135.121094 C 1047.171875 134.574219 1046.847656 133.839844 1046.351562 132.921875 C 1044.800781 130.296875 1043.664062 128.5 1042.9375 127.527344 C 1034.703125 115.660156 1028.878906 109.148438 1025.464844 107.992188 " fill-opacity="1" fill-rule="nonzero"/></g></g></g><g clip-path="url(#e3d73d8058)"><g clip-path="url(#7910fb65f2)"><g clip-path="url(#175b66a261)"><path fill="#030f52" d="M 1055.238281 101.703125 L 1055.214844 101.699219 C 1054.636719 101.617188 1054.164062 101.726562 1053.796875 102.023438 C 1053.550781 102.21875 1053.347656 102.492188 1053.191406 102.847656 C 1053.054688 103.207031 1052.976562 103.492188 1052.957031 103.707031 C 1052.769531 105.3125 1053.097656 107.765625 1053.933594 111.074219 C 1054.554688 113.804688 1055.867188 117.117188 1057.878906 121.003906 C 1058.476562 122.261719 1059.394531 123.824219 1060.628906 125.691406 C 1061.082031 126.429688 1061.53125 126.859375 1061.984375 126.984375 C 1062.421875 127.078125 1062.824219 126.921875 1063.195312 126.523438 C 1063.34375 126.339844 1063.429688 126.203125 1063.453125 126.105469 L 1063.648438 125.433594 C 1063.675781 125.277344 1063.6875 125.164062 1063.675781 125.089844 C 1063.191406 120.558594 1062.511719 116.734375 1061.640625 113.625 C 1060.855469 110.898438 1059.6875 108.019531 1058.132812 104.988281 C 1057.101562 103.175781 1056.136719 102.078125 1055.238281 101.703125 " fill-opacity="1" fill-rule="nonzero"/></g></g></g><g clip-path="url(#3eaea307d2)"><g clip-path="url(#b0c4ed1c2d)"><g clip-path="url(#32e2805e9b)"><path fill="#030f52" d="M 1085.890625 97.898438 L 1085.863281 98.058594 C 1085.792969 98.488281 1085.703125 98.960938 1085.597656 99.476562 L 1085.527344 99.8125 L 1085.4375 100.195312 L 1085.320312 100.648438 L 1085.175781 101.171875 L 1085.011719 101.765625 L 1084.820312 102.425781 L 1084.601562 103.160156 L 1084.359375 103.960938 L 1084.089844 104.832031 L 1083.796875 105.757812 C 1083.902344 105.304688 1084.011719 104.828125 1084.132812 104.328125 C 1084.214844 103.96875 1084.375 103.316406 1084.605469 102.371094 C 1085.0625 100.703125 1085.445312 99.339844 1085.753906 98.277344 L 1085.863281 97.890625 L 1085.890625 97.898438 M 1081.429688 121.261719 L 1081.367188 121.335938 L 1081.300781 121.398438 L 1081.226562 121.453125 L 1081.152344 121.5 L 1081.074219 121.542969 L 1080.992188 121.574219 L 1080.902344 121.601562 L 1080.8125 121.617188 L 1080.714844 121.628906 C 1080.847656 121.601562 1080.972656 121.558594 1081.089844 121.496094 C 1081.203125 121.433594 1081.308594 121.351562 1081.402344 121.257812 L 1081.429688 121.261719 M 1087.101562 93.109375 L 1087.015625 93.089844 C 1086.375 92.964844 1085.800781 93.121094 1085.300781 93.5625 L 1084.867188 93.984375 C 1084.578125 94.3125 1084.285156 94.726562 1083.988281 95.226562 C 1083.394531 96.230469 1082.785156 97.589844 1082.164062 99.296875 C 1081.578125 100.945312 1081.121094 102.429688 1080.792969 103.75 C 1079.96875 106.996094 1079.316406 110.070312 1078.839844 112.96875 C 1078.746094 113.496094 1078.445312 115.300781 1077.9375 118.375 L 1076.589844 128.191406 C 1076.539062 128.898438 1076.863281 129.367188 1077.5625 129.597656 C 1077.96875 129.6875 1078.339844 129.59375 1078.683594 129.316406 C 1078.859375 129.132812 1078.953125 129.011719 1078.96875 128.957031 C 1079.085938 128.664062 1079.117188 128.566406 1079.054688 128.65625 C 1079.25 128.5 1079.425781 128.222656 1079.574219 127.820312 L 1081.640625 120.917969 L 1086.511719 105.59375 C 1087.089844 103.722656 1087.515625 102.269531 1087.785156 101.238281 C 1088.394531 98.789062 1088.664062 96.863281 1088.585938 95.460938 C 1088.449219 94.128906 1087.953125 93.347656 1087.101562 93.109375 " fill-opacity="1" fill-rule="nonzero"/></g></g></g><g clip-path="url(#6b8c6b7b60)"><g clip-path="url(#2f9c0898a3)"><g clip-path="url(#9c4f2179c6)"><path fill="#030f52" d="M 1085.8125 96.773438 C 1085.15625 96.601562 1084.476562 96.980469 1084.28125 97.632812 C 1084.222656 97.832031 1084.160156 98.066406 1084.09375 98.339844 L 1084.089844 98.363281 L 1083.726562 100.011719 C 1083.613281 100.496094 1083.3125 101.820312 1082.828125 103.980469 C 1082.738281 104.375 1082.472656 105.503906 1082.023438 107.359375 L 1082.023438 107.363281 C 1081.953125 107.664062 1081.859375 108.070312 1081.742188 108.582031 C 1081.652344 108.953125 1081.421875 110.019531 1081.046875 111.78125 C 1080.90625 112.445312 1081.316406 113.101562 1081.96875 113.273438 C 1081.988281 113.277344 1082.003906 113.28125 1082.023438 113.285156 C 1082.707031 113.429688 1083.382812 112.992188 1083.527344 112.308594 C 1083.902344 110.550781 1084.128906 109.503906 1084.210938 109.164062 L 1084.210938 109.152344 C 1084.328125 108.652344 1084.421875 108.253906 1084.492188 107.949219 L 1084.492188 107.953125 C 1084.941406 106.085938 1085.210938 104.945312 1085.304688 104.535156 L 1085.300781 104.535156 C 1085.785156 102.382812 1086.085938 101.0625 1086.203125 100.574219 L 1086.207031 100.550781 L 1086.5625 98.925781 C 1086.613281 98.703125 1086.664062 98.515625 1086.710938 98.367188 C 1086.910156 97.695312 1086.53125 96.988281 1085.863281 96.785156 C 1085.84375 96.78125 1085.828125 96.777344 1085.8125 96.773438 Z M 1085.8125 96.773438 " fill-opacity="1" fill-rule="nonzero"/></g></g></g><g clip-path="url(#667dc998f5)"><g clip-path="url(#76d1edcefd)"><g clip-path="url(#db109461cd)"><path fill="#030f52" d="M 1109.054688 116.476562 L 1108.957031 116.457031 C 1108.460938 116.378906 1107.957031 116.476562 1107.445312 116.742188 C 1106.730469 117.09375 1105.800781 117.765625 1104.65625 118.757812 C 1102.953125 120.351562 1101.695312 121.609375 1100.882812 122.539062 C 1099.863281 123.652344 1098.875 124.800781 1097.921875 125.984375 L 1096.515625 127.785156 C 1095.59375 129.003906 1094.707031 130.257812 1093.847656 131.546875 L 1092.589844 133.507812 L 1091.191406 135.835938 C 1090.988281 136.214844 1090.949219 136.59375 1091.078125 136.980469 C 1091.3125 137.46875 1091.617188 137.761719 1091.984375 137.859375 C 1092.375 137.945312 1092.796875 137.824219 1093.242188 137.496094 L 1095.40625 135.816406 C 1096.285156 135.085938 1097.167969 134.316406 1098.050781 133.507812 C 1100.269531 131.542969 1103.203125 128.441406 1106.855469 124.203125 C 1107.972656 122.824219 1108.820312 121.640625 1109.390625 120.652344 C 1109.675781 120.15625 1109.894531 119.710938 1110.042969 119.3125 L 1110.214844 118.753906 C 1110.414062 117.582031 1110.027344 116.820312 1109.054688 116.476562 " fill-opacity="1" fill-rule="nonzero"/></g></g></g><g clip-path="url(#5126167678)"><g clip-path="url(#ba40249657)"><g clip-path="url(#7431f7ae39)"><path fill="#030f52" d="M 1140.96875 137.136719 L 1140.523438 137.0625 C 1134.585938 137.039062 1125.40625 139.066406 1112.976562 143.148438 L 1109.585938 144.351562 L 1102.25 147.199219 C 1101.535156 147.722656 1101.277344 148.191406 1101.476562 148.597656 C 1101.660156 149.238281 1102.042969 149.609375 1102.628906 149.714844 C 1102.976562 149.765625 1103.429688 149.746094 1103.992188 149.648438 C 1105.480469 149.351562 1106.605469 149.058594 1107.363281 148.769531 C 1113.777344 147.945312 1118.863281 147.074219 1122.613281 146.164062 C 1127.847656 145 1132.257812 143.824219 1135.847656 142.640625 C 1139.246094 141.476562 1141.21875 140.550781 1141.765625 139.863281 C 1142.238281 139.328125 1142.386719 138.773438 1142.203125 138.207031 C 1142.070312 137.699219 1141.660156 137.34375 1140.96875 137.136719 " fill-opacity="1" fill-rule="nonzero"/></g></g></g></svg>